<mxfile><diagram id="nYH_T850Xh8S7OsnWI_f" name="Page-1"><mxGraphModel dx="1033" dy="299" grid="1" gridSize="10" guides="1" tooltips="1" connect="1" arrows="1" fold="1" page="1" pageScale="1" pageWidth="850" pageHeight="1100" math="0" shadow="0"><root><mxCell id="0"/><mxCell id="1" parent="0"/><mxCell id="7" style="edgeStyle=none;html=1;entryX=0.5;entryY=0;entryDx=0;entryDy=0;fontFamily=Helvetica;fontSize=12;fontColor=#000000;rounded=0;strokeColor=#000000;" parent="1" source="3" target="5" edge="1"><mxGeometry relative="1" as="geometry"/></mxCell><mxCell id="9" style="edgeStyle=none;shape=connector;rounded=0;html=1;entryX=0.5;entryY=0;entryDx=0;entryDy=0;labelBackgroundColor=default;fontFamily=Helvetica;fontSize=12;fontColor=#000000;endArrow=classic;strokeColor=#000000;" parent="1" source="3" target="6" edge="1"><mxGeometry relative="1" as="geometry"><Array as="points"><mxPoint x="620" y="180"/></Array></mxGeometry></mxCell><mxCell id="10" style="edgeStyle=none;shape=connector;rounded=0;html=1;entryX=0.5;entryY=0;entryDx=0;entryDy=0;labelBackgroundColor=default;fontFamily=Helvetica;fontSize=12;fontColor=#000000;endArrow=classic;strokeColor=#000000;" parent="1" source="3" target="4" edge="1"><mxGeometry relative="1" as="geometry"><Array as="points"><mxPoint x="130" y="180"/></Array></mxGeometry></mxCell><mxCell id="3" value="&lt;font color=&quot;#000000&quot;&gt;Area and Volume of a sphere&lt;/font&gt;" style="rounded=0;whiteSpace=wrap;html=1;fillColor=#FFFFFF;" parent="1" vertex="1"><mxGeometry x="350" y="140" width="150" height="80" as="geometry"/></mxCell><mxCell id="15" style="edgeStyle=none;shape=connector;rounded=0;html=1;entryX=0.5;entryY=0;entryDx=0;entryDy=0;labelBackgroundColor=default;fontFamily=Helvetica;fontSize=12;fontColor=#000000;endArrow=classic;strokeColor=#000000;" parent="1" source="4" target="11" edge="1"><mxGeometry relative="1" as="geometry"><Array as="points"><mxPoint x="130" y="370"/></Array></mxGeometry></mxCell><mxCell id="4" value="Input" style="rounded=0;whiteSpace=wrap;html=1;fontFamily=Helvetica;fontSize=12;fontColor=#000000;strokeColor=default;fillColor=#FFFFFF;" parent="1" vertex="1"><mxGeometry x="70" y="280" width="120" height="60" as="geometry"/></mxCell><mxCell id="20" style="edgeStyle=none;shape=connector;rounded=0;html=1;entryX=0.5;entryY=0;entryDx=0;entryDy=0;labelBackgroundColor=default;fontFamily=Helvetica;fontSize=12;fontColor=#000000;endArrow=classic;strokeColor=#000000;" parent="1" source="5" target="18" edge="1"><mxGeometry relative="1" as="geometry"><Array as="points"><mxPoint x="510" y="310"/></Array></mxGeometry></mxCell><mxCell id="21" style="edgeStyle=none;shape=connector;rounded=0;html=1;entryX=0.5;entryY=0;entryDx=0;entryDy=0;labelBackgroundColor=default;fontFamily=Helvetica;fontSize=12;fontColor=#000000;endArrow=classic;strokeColor=#000000;" parent="1" source="5" target="16" edge="1"><mxGeometry relative="1" as="geometry"><Array as="points"><mxPoint x="325" y="310"/></Array></mxGeometry></mxCell><mxCell id="5" value="process" style="rounded=0;whiteSpace=wrap;html=1;fontFamily=Helvetica;fontSize=12;fontColor=#000000;strokeColor=default;fillColor=#FFFFFF;" parent="1" vertex="1"><mxGeometry x="365" y="280" width="120" height="60" as="geometry"/></mxCell><mxCell id="23" style="edgeStyle=none;shape=connector;rounded=0;html=1;entryX=0.5;entryY=0;entryDx=0;entryDy=0;labelBackgroundColor=default;fontFamily=Helvetica;fontSize=12;fontColor=#000000;endArrow=classic;strokeColor=#000000;" parent="1" source="6" target="22" edge="1"><mxGeometry relative="1" as="geometry"><Array as="points"><mxPoint x="700" y="310"/></Array></mxGeometry></mxCell><mxCell id="6" value="Output" style="rounded=0;whiteSpace=wrap;html=1;fontFamily=Helvetica;fontSize=12;fontColor=#000000;strokeColor=default;fillColor=#FFFFFF;" parent="1" vertex="1"><mxGeometry x="560" y="280" width="120" height="60" as="geometry"/></mxCell><mxCell id="11" value="Get Radius" style="rounded=0;whiteSpace=wrap;html=1;fontFamily=Helvetica;fontSize=12;fontColor=#000000;strokeColor=default;fillColor=#FFFFFF;" parent="1" vertex="1"><mxGeometry x="70" y="420" width="120" height="60" as="geometry"/></mxCell><mxCell id="16" value="Surface area = A=4 * π * r&lt;sup&gt;2&lt;/sup&gt;" style="rounded=0;whiteSpace=wrap;html=1;fontFamily=Helvetica;fontSize=12;fontColor=#000000;strokeColor=default;fillColor=#FFFFFF;" parent="1" vertex="1"><mxGeometry x="250" y="390" width="150" height="60" as="geometry"/></mxCell><mxCell id="18" value="Volume = 4 / 3 *&amp;nbsp;π * r&lt;sup&gt;3&lt;/sup&gt;" style="rounded=0;whiteSpace=wrap;html=1;fontFamily=Helvetica;fontSize=12;fontColor=#000000;strokeColor=default;fillColor=#FFFFFF;" parent="1" vertex="1"><mxGeometry x="450" y="390" width="120" height="60" as="geometry"/></mxCell><mxCell id="22" value="Shows Surface area and Volume" style="rounded=0;whiteSpace=wrap;html=1;fontFamily=Helvetica;fontSize=12;fontColor=#000000;strokeColor=default;fillColor=#FFFFFF;" parent="1" vertex="1"><mxGeometry x="640" y="400" width="120" height="60" as="geometry"/></mxCell></root></mxGraphModel></diagram></mxfile>